<?xml version="1.0" standalone="no"?>
<!DOCTYPE svg PUBLIC "-//W3C//DTD SVG 20010904//EN"
 "http://www.w3.org/TR/2001/REC-SVG-20010904/DTD/svg10.dtd">
<svg version="1.0" xmlns="http://www.w3.org/2000/svg"
 width="800.000000pt" height="800.000000pt" viewBox="0 0 800.000000 800.000000"
 preserveAspectRatio="xMidYMid meet">
<metadata>
Created by potrace 1.16, written by Peter Selinger 2001-2019
</metadata>
<g transform="translate(0.000000,800.000000) scale(0.100000,-0.100000)"
fill="#000000" stroke="none">
<path d="M3935 7239 c-705 -45 -1371 -317 -1905 -778 -368 -318 -665 -719
-855 -1156 -193 -443 -278 -851 -279 -1330 -1 -258 16 -435 65 -677 136 -684
511 -1337 1029 -1792 298 -262 598 -448 944 -586 383 -152 692 -215 1116 -227
295 -8 534 16 824 83 224 51 564 182 786 301 111 60 342 214 453 302 l88 70
-367 413 c-202 227 -370 414 -374 416 -3 1 -35 -19 -71 -46 -263 -198 -556
-330 -864 -387 -647 -120 -1264 47 -1773 478 -349 296 -617 763 -701 1222
-121 652 38 1296 442 1794 243 300 562 529 927 664 279 103 624 146 910 113
153 -18 332 -54 425 -86 l55 -19 14 22 c39 60 416 969 416 1003 0 10 -173 71
-310 108 -168 45 -423 83 -647 96 -182 11 -173 11 -348 -1z"/>
<path d="M5878 6693 c-16 -19 -539 -812 -577 -875 l-22 -37 74 -54 c41 -31
105 -82 143 -114 38 -33 74 -62 81 -66 7 -5 140 133 365 381 194 213 362 399
373 411 l20 23 -55 50 c-96 86 -368 298 -383 298 -2 0 -11 -8 -19 -17z"/>
<path d="M3920 5584 c-406 -55 -760 -251 -1022 -564 -171 -205 -290 -452 -348
-727 -27 -127 -37 -383 -21 -519 60 -479 318 -909 701 -1165 77 -52 337 -185
345 -178 2 3 1 105 -3 228 l-7 224 -67 41 c-265 162 -466 445 -537 756 -11 47
-22 106 -26 132 l-6 47 1034 1 c569 0 1105 3 1192 6 l157 6 -5 -28 c-3 -16 -9
-49 -12 -74 -23 -164 -123 -406 -220 -535 -93 -123 -239 -257 -359 -327 l-46
-28 0 -220 c0 -169 3 -220 13 -220 26 0 227 105 321 167 170 113 366 317 468
487 239 396 305 821 198 1271 -139 586 -617 1061 -1195 1189 -209 47 -367 55
-555 30z m330 -405 c402 -49 744 -290 925 -649 43 -87 95 -220 95 -245 0 -13
-149 -15 -1052 -15 -579 0 -1099 -3 -1155 -6 l-102 -6 15 56 c20 77 72 197
122 283 237 405 700 639 1152 582z"/>
</g>
</svg>
